<?xml version="1.0" encoding="UTF-8"?><svg id="Layer_1" xmlns="http://www.w3.org/2000/svg" viewBox="0 0 166.73 60.09"><defs><style>.cls-1{stroke-width:0px;}</style></defs><path class="cls-1" d="m0,0v60.09h60.09V0H0Zm27.26,38.09l-2.35-4.05-2.34,4.06-.04.07h-5.52l-.04-.07L7.63,21.93h5.6l6.54,11.32,2.35-4.06,2.79-4.84,2.8,4.85,2.34,4.05-2.75,4.92-.04-.08Zm7.82.01l-.04.07h-5.51l2.75-4.92,6.54-11.32h5.6l-2.34,4.06-7,12.11Zm14.6-3.2l-1.89,3.27h-5.6l4.69-8.12-2.34-4.06,2.34-4.06h.91l1.89,3.27,2.8,4.85-2.8,4.85Z"/><path class="cls-1" d="m87.79,21.79l-3.86,14.81h-4.37l-2.36-9.74-2.45,9.74h-4.37l-3.75-14.81h3.86l2.13,10.78,2.64-10.78h3.96l2.53,10.78,2.15-10.78h3.88Z"/><path class="cls-1" d="m100.64,31.57h-8.16c.06.73.29,1.29.71,1.68.41.39.92.58,1.53.58.9,0,1.53-.38,1.88-1.14h3.84c-.2.77-.55,1.47-1.06,2.09-.51.62-1.16,1.1-1.93,1.46-.77.35-1.64.53-2.59.53-1.15,0-2.18-.25-3.08-.74-.9-.49-1.6-1.2-2.11-2.11-.51-.91-.76-1.98-.76-3.21s.25-2.29.75-3.21c.5-.91,1.2-1.62,2.1-2.11.9-.49,1.93-.74,3.1-.74s2.15.24,3.04.72,1.58,1.16,2.08,2.05c.5.89.75,1.92.75,3.1,0,.34-.02.69-.06,1.05Zm-3.63-2c0-.62-.21-1.11-.63-1.48s-.95-.55-1.58-.55-1.11.18-1.53.53c-.42.35-.67.85-.77,1.5h4.51Z"/><path class="cls-1" d="m107.66,25.16c.63-.34,1.36-.51,2.17-.51.97,0,1.85.25,2.64.74.79.49,1.41,1.2,1.87,2.11.46.91.69,1.98.69,3.19s-.23,2.27-.69,3.2-1.08,1.63-1.87,2.13c-.79.5-1.67.75-2.64.75-.83,0-1.55-.17-2.17-.5-.62-.33-1.1-.77-1.46-1.32v1.65h-3.61v-15.61h3.61v5.5c.34-.55.82-.99,1.46-1.33Zm2.94,3.41c-.5-.51-1.11-.77-1.85-.77s-1.33.26-1.82.78c-.5.52-.75,1.23-.75,2.13s.25,1.61.75,2.13,1.11.78,1.82.78,1.33-.26,1.83-.79c.51-.53.76-1.24.76-2.14s-.25-1.61-.75-2.12Z"/><path class="cls-1" d="m131.03,22.71c1.17.62,2.07,1.49,2.71,2.6.64,1.12.96,2.41.96,3.87s-.32,2.73-.96,3.86-1.55,2-2.72,2.62c-1.17.62-2.53.93-4.08.93h-5.55v-14.81h5.55c1.56,0,2.92.31,4.09.93Zm-1.14,9.64c.76-.75,1.14-1.8,1.14-3.16s-.38-2.43-1.14-3.19c-.76-.76-1.82-1.14-3.18-1.14h-1.71v8.61h1.71c1.36,0,2.42-.37,3.18-1.12Z"/><path class="cls-1" d="m147.75,31.57h-8.16c.06.73.29,1.29.71,1.68.41.39.92.58,1.53.58.9,0,1.53-.38,1.88-1.14h3.84c-.2.77-.55,1.47-1.06,2.09-.51.62-1.16,1.1-1.93,1.46-.77.35-1.64.53-2.59.53-1.15,0-2.18-.25-3.08-.74-.9-.49-1.6-1.2-2.11-2.11-.51-.91-.76-1.98-.76-3.21s.25-2.29.75-3.21c.5-.91,1.2-1.62,2.1-2.11.9-.49,1.93-.74,3.1-.74s2.15.24,3.04.72,1.58,1.16,2.08,2.05c.5.89.75,1.92.75,3.1,0,.34-.02.69-.06,1.05Zm-3.63-2c0-.62-.21-1.11-.63-1.48s-.95-.55-1.58-.55-1.11.18-1.53.53c-.42.35-.67.85-.77,1.5h4.51Z"/><path class="cls-1" d="m155.01,33.22l2.55-8.39h3.84l-4.18,11.77h-4.45l-4.18-11.77h3.86l2.55,8.39Z"/><path class="cls-1" d="m163.05,36.2c-.4-.37-.6-.83-.6-1.38s.2-1.03.6-1.41c.4-.38.92-.57,1.55-.57s1.13.19,1.53.57c.4.38.6.85.6,1.41s-.2,1.01-.6,1.38c-.4.37-.91.56-1.53.56s-1.15-.19-1.55-.56Z"/></svg>